<svg fill="none" height="20" viewBox="0 0 20 20" width="20" xmlns="http://www.w3.org/2000/svg"><g fill="rgb(0,0,0)"><path d="m3.5 6.25c0-1.51878 1.23122-2.75 2.75-2.75h7.5c1.5188 0 2.75 1.23122 2.75 2.75v4.52c0 .4142-.3358.75-.75.75s-.75-.3358-.75-.75v-4.52c0-.69036-.5596-1.25-1.25-1.25h-7.5c-.69036 0-1.25.55964-1.25 1.25v7.5c0 .6904.55964 1.25 1.25 1.25h4.92c.4142 0 .75.3358.75.75s-.3358.75-.75.75h-4.92c-1.51878 0-2.75-1.2312-2.75-2.75z"/><path d="m15.75 12.5c.4142 0 .75.3358.75.75v1.25h1.25c.4142 0 .75.3358.75.75s-.3358.75-.75.75h-1.25v1.25c0 .4142-.3358.75-.75.75s-.75-.3358-.75-.75v-1.25h-1.25c-.4142 0-.75-.3358-.75-.75s.3358-.75.75-.75h1.25v-1.25c0-.4142.3358-.75.75-.75z"/><path d="m6.55 7.25c0-.3866.3134-.7.7-.7h5.5c.3866 0 .7.3134.7.7s-.3134.7-.7.7h-5.5c-.3866 0-.7-.3134-.7-.7z"/><path d="m7 9.05c-.3866 0-.7.3134-.7.7s.3134.7.7.7h2.25c.3866 0 .7-.3134.7-.7s-.3134-.7-.7-.7z"/></g></svg>