<?xml version="1.0" standalone="no"?>
<!DOCTYPE svg PUBLIC "-//W3C//DTD SVG 20010904//EN"
 "http://www.w3.org/TR/2001/REC-SVG-20010904/DTD/svg10.dtd">
<svg version="1.0" xmlns="http://www.w3.org/2000/svg"
 width="512.000000pt" height="512.000000pt" viewBox="0 0 512.000000 512.000000"
 preserveAspectRatio="xMidYMid meet">

<g transform="translate(0.000000,512.000000) scale(0.100000,-0.100000)"
fill="#000000" stroke="none">
<path d="M3547 4662 c-14 -15 -17 -41 -17 -133 l0 -115 -57 -18 c-32 -9 -85
-30 -119 -47 -34 -16 -65 -29 -70 -29 -4 0 -45 36 -90 80 -45 44 -87 80 -93
80 -27 0 -71 -33 -148 -113 -108 -110 -108 -114 -3 -222 l81 -82 -35 -72 c-19
-40 -40 -94 -47 -122 l-13 -49 -113 0 c-108 0 -115 -1 -138 -25 -14 -13 -25
-31 -25 -40 0 -13 -117 -15 -1120 -15 l-1121 0 -24 -25 -25 -24 0 -1341 c0
-1327 0 -1340 20 -1360 20 -20 33 -20 2028 -20 1934 0 2010 1 2025 18 16 17
17 99 17 972 l0 953 40 43 c60 65 56 83 -41 180 l-81 81 28 54 c15 30 38 83
50 119 l23 65 116 5 c156 7 155 6 155 180 0 174 1 173 -155 180 l-117 5 -18
55 c-9 30 -31 84 -49 119 l-33 64 81 81 c108 109 108 111 -11 232 -126 127
-127 127 -233 24 l-85 -83 -69 32 c-38 17 -94 40 -123 49 l-53 17 -3 115 c-4
156 3 150 -177 150 -125 0 -144 -2 -158 -18z m195 -226 c4 -125 13 -139 97
-157 73 -15 160 -50 216 -88 80 -54 85 -53 173 33 43 42 82 76 87 76 5 0 19
-10 32 -22 l23 -21 -75 -78 c-85 -89 -91 -111 -49 -173 39 -57 80 -153 94
-221 7 -33 22 -70 33 -82 19 -21 29 -23 129 -23 l108 0 0 -40 0 -40 -107 0
c-96 0 -109 -2 -130 -22 -13 -12 -23 -30 -23 -39 0 -39 -50 -173 -89 -239 -23
-37 -41 -79 -41 -92 0 -15 26 -48 77 -100 l78 -78 -27 -27 -27 -27 -80 77
c-86 84 -105 91 -156 56 -76 -52 -168 -89 -277 -113 -52 -12 -58 -28 -58 -147
l0 -109 -40 0 -40 0 0 98 c0 57 -5 107 -13 121 -12 25 -17 27 -129 56 -37 9
-106 39 -153 66 -47 27 -92 49 -101 49 -9 0 -51 -34 -93 -75 -43 -41 -81 -75
-86 -75 -5 0 -19 10 -32 22 l-23 21 75 78 c88 93 92 111 41 192 -43 67 -62
111 -86 206 -10 42 -27 81 -36 88 -12 9 -54 13 -126 13 l-108 0 0 40 0 40 108
0 c100 0 110 2 129 23 12 12 25 40 29 62 12 68 43 147 84 217 56 94 54 106
-35 197 l-75 77 23 22 c13 12 27 22 32 22 5 0 44 -34 87 -76 85 -83 98 -86
157 -45 60 43 139 75 267 110 54 14 64 39 64 156 l0 95 34 0 34 0 4 -104z
m-1082 -881 c0 -35 6 -52 25 -70 23 -24 30 -25 138 -25 l113 0 13 -51 c7 -28
29 -82 48 -121 l35 -69 -81 -84 c-55 -56 -81 -90 -81 -106 0 -17 29 -53 97
-121 126 -127 130 -127 237 -19 l79 80 67 -34 c36 -18 92 -41 123 -50 l57 -16
0 -116 c0 -159 -6 -153 175 -153 180 0 173 -5 177 150 l3 114 72 27 c40 15 94
38 121 52 l49 26 79 -80 c43 -43 87 -79 96 -79 17 0 18 -43 18 -850 l0 -850
-1905 0 -1905 0 0 1245 0 1245 1075 0 1075 0 0 -45z"/>
<path d="M3572 4042 c-243 -87 -356 -358 -243 -587 117 -236 416 -308 628
-151 255 187 214 583 -74 719 -59 27 -81 32 -163 34 -73 3 -107 -1 -148 -15z
m255 -145 c124 -65 186 -203 149 -330 -23 -80 -70 -135 -146 -175 -60 -31 -71
-34 -135 -30 -114 8 -195 60 -242 155 -71 146 1 332 151 387 53 20 179 16 223
-7z"/>
<path d="M1920 3023 c-8 -3 -23 -12 -32 -21 -17 -14 -18 -58 -18 -652 0 -604
1 -638 18 -653 10 -10 31 -17 46 -17 29 0 986 593 1019 631 23 28 22 53 -5 83
-29 32 -994 639 -1010 635 -2 0 -10 -3 -18 -6z m475 -437 c198 -125 361 -230
362 -234 2 -5 -504 -327 -708 -451 l-39 -23 0 472 c0 374 3 471 13 467 6 -3
174 -107 372 -231z"/>
<path d="M805 868 c-48 -17 -94 -56 -115 -99 l-20 -39 -126 0 c-119 0 -126 -1
-149 -25 -30 -29 -32 -64 -5 -93 19 -20 30 -22 150 -22 121 0 129 -1 135 -21
11 -33 65 -88 109 -112 39 -21 53 -22 291 -22 237 0 252 1 290 22 48 26 90 68
104 106 l11 27 1470 0 c1457 0 1470 0 1490 20 20 20 26 65 12 86 -22 34 -37
34 -1511 34 l-1460 0 -23 42 c-13 23 -43 56 -66 73 l-44 30 -256 2 c-164 1
-268 -2 -287 -9z m520 -153 c44 -43 29 -112 -29 -135 -37 -14 -404 -13 -445 1
-56 20 -70 91 -26 134 l24 25 226 0 226 0 24 -25z"/>
</g>
</svg>
